<svg width="22" height="27" viewBox="0 0 22 27" fill="none" xmlns="http://www.w3.org/2000/svg">
<path d="M10.9997 26.334C12.4663 26.334 13.6663 25.134 13.6663 23.6673H8.33301C8.33301 25.134 9.53301 26.334 10.9997 26.334ZM18.9997 18.334V11.6673C18.9997 7.57398 16.8263 4.14732 12.9997 3.24065V2.33398C12.9997 1.22732 12.1063 0.333984 10.9997 0.333984C9.89301 0.333984 8.99967 1.22732 8.99967 2.33398V3.24065C5.18634 4.14732 2.99967 7.56065 2.99967 11.6673V18.334L0.333008 21.0007V22.334H21.6663V21.0007L18.9997 18.334ZM16.333 19.6673H5.66634V11.6673C5.66634 8.36065 7.67967 5.66732 10.9997 5.66732C14.3197 5.66732 16.333 8.36065 16.333 11.6673V19.6673Z" fill="white"/>
</svg>
