<svg width="28" height="28" viewBox="0 0 28 28" fill="none" xmlns="http://www.w3.org/2000/svg">
<path d="M13.987 0.666016C6.62699 0.666016 0.666992 6.63935 0.666992 13.9993C0.666992 21.3594 6.62699 27.3327 13.987 27.3327C21.3603 27.3327 27.3337 21.3594 27.3337 13.9993C27.3337 6.63935 21.3603 0.666016 13.987 0.666016ZM23.227 8.66602H19.2937C18.867 6.99935 18.2537 5.39935 17.4537 3.91935C19.907 4.75935 21.947 6.46602 23.227 8.66602ZM14.0003 3.38602C15.107 4.98602 15.9737 6.75935 16.547 8.66602H11.4537C12.027 6.75935 12.8937 4.98602 14.0003 3.38602ZM3.68033 16.666C3.46699 15.8127 3.33366 14.9193 3.33366 13.9993C3.33366 13.0793 3.46699 12.186 3.68033 11.3327H8.18699C8.08033 12.2127 8.00033 13.0927 8.00033 13.9993C8.00033 14.906 8.08033 15.786 8.18699 16.666H3.68033ZM4.77366 19.3327H8.70699C9.13366 20.9993 9.74699 22.5993 10.547 24.0793C8.09366 23.2393 6.05366 21.546 4.77366 19.3327ZM8.70699 8.66602H4.77366C6.05366 6.45268 8.09366 4.75935 10.547 3.91935C9.74699 5.39935 9.13366 6.99935 8.70699 8.66602ZM14.0003 24.6127C12.8937 23.0127 12.027 21.2393 11.4537 19.3327H16.547C15.9737 21.2393 15.107 23.0127 14.0003 24.6127ZM17.1203 16.666H10.8803C10.7603 15.786 10.667 14.906 10.667 13.9993C10.667 13.0927 10.7603 12.1993 10.8803 11.3327H17.1203C17.2403 12.1993 17.3337 13.0927 17.3337 13.9993C17.3337 14.906 17.2403 15.786 17.1203 16.666ZM17.4537 24.0793C18.2537 22.5993 18.867 20.9993 19.2937 19.3327H23.227C21.947 21.5327 19.907 23.2393 17.4537 24.0793ZM19.8137 16.666C19.9203 15.786 20.0003 14.906 20.0003 13.9993C20.0003 13.0927 19.9203 12.2127 19.8137 11.3327H24.3203C24.5337 12.186 24.667 13.0793 24.667 13.9993C24.667 14.9193 24.5337 15.8127 24.3203 16.666H19.8137Z" fill="white"/>
</svg>
