<svg width="30" height="43" viewBox="0 0 30 43" fill="none" xmlns="http://www.w3.org/2000/svg">
<path d="M0 16C0 7.16344 7.16344 0 16 0H26C28.2091 0 30 1.79086 30 4V38.8571C30 41.0663 28.2091 42.8571 26 42.8571H4C1.79086 42.8571 0 41.0663 0 38.8571V16Z" fill="#F4B1FF" fill-opacity="0.4"/>
<path fill-rule="evenodd" clip-rule="evenodd" d="M15.25 14C15.6642 14 16 14.3358 16 14.75V23.5314L20.3517 20.1879C20.674 19.9402 21.1159 20.0299 21.3387 20.388C21.5615 20.7462 21.4809 21.2373 21.1586 21.485L15.656 25.7128C15.4132 25.8994 15.0918 25.8994 14.8491 25.7128L9.34649 21.485C9.02419 21.2373 8.94356 20.7462 9.16638 20.388C9.38921 20.0299 9.83113 19.9402 10.1534 20.1879L14.5 23.5275V14.75C14.5 14.3358 14.8357 14 15.25 14ZM8.75 26.5C8.33579 26.5 8 26.8358 8 27.25C8 27.6642 8.33579 28 8.75 28H21.75C22.1642 28 22.5 27.6642 22.5 27.25C22.5 26.8358 22.1642 26.5 21.75 26.5H8.75Z" fill="#391147"/>
</svg>
