<svg id="Layer_2" data-name="Layer 2" xmlns="http://www.w3.org/2000/svg" viewBox="0 0 309.63 291.1"><defs><style>.cls-1,.cls-2,.cls-3{fill:none;stroke:#fcfcfc;stroke-linecap:round;stroke-miterlimit:10;}.cls-1{stroke-width:5px;}.cls-2{stroke-width:8px;}.cls-3{stroke-width:4px;}</style></defs><path class="cls-1" d="M658.52,459.44c-2.11,41.82-20.09,75.66-37.69,83.56" transform="translate(-385.02 -310.58)"/><path class="cls-1" d="M673.3,459.44c.28,52.45-26,93.06-52.47,103.46" transform="translate(-385.02 -310.58)"/><path class="cls-2" d="M690.43,460.52c3.68,73.83-38.23,126.83-117.28,137" transform="translate(-385.02 -310.58)"/><path class="cls-2" d="M565,376.45c0,33.14-25,60-25,60s-25-26.86-25-60,25-60,25-60S565,343.32,565,376.45Z" transform="translate(-385.02 -310.58)"/><path class="cls-3" d="M620.83,517" transform="translate(-385.02 -310.58)"/><path class="cls-3" d="M563.63,536.86" transform="translate(-385.02 -310.58)"/><path class="cls-2" d="M641,460.2s-.16,36.76-18.92,58.67-49,20.67-49,20.67.16-36.76,18.93-58.67" transform="translate(-385.02 -310.58)"/><path class="cls-2" d="M630.43,438.31c-20.85,25.76-57.19,30.9-57.19,30.9s-2.52-36.61,18.33-62.36,59.18-30.65,59.18-30.65S651.28,412.56,630.43,438.31Z" transform="translate(-385.02 -310.58)"/><path class="cls-3" d="M519.55,537.71" transform="translate(-385.02 -310.58)"/><path class="cls-2" d="M389.47,460.52c-5.38,69.66,38,124.75,117.65,137.16" transform="translate(-385.02 -310.58)"/><path class="cls-2" d="M449.64,437.84c20.85,25.75,57.18,30.9,57.18,30.9s2.53-36.61-18.33-62.37-59.17-30.65-59.17-30.65S428.78,412.09,449.64,437.84Z" transform="translate(-385.02 -310.58)"/><path class="cls-2" d="M439.17,460.66s.16,36.75,18.92,58.66,49,20.67,49,20.67-.15-36.76-18.92-58.66" transform="translate(-385.02 -310.58)"/><path class="cls-1" d="M408.24,459.44c-.27,52.45,26,93.06,52.47,103.46" transform="translate(-385.02 -310.58)"/><path class="cls-1" d="M422.33,459.44C424.44,501.26,442.42,535.1,460,543" transform="translate(-385.02 -310.58)"/></svg>