<svg id="Layer_2" data-name="Layer 2" xmlns="http://www.w3.org/2000/svg" viewBox="0 0 1081.03 1081.03"><defs><style>.cls-1{fill:#81007f;stroke:#231f20;stroke-width:1.03px;}.cls-1,.cls-2,.cls-3,.cls-4{stroke-miterlimit:10;}.cls-2,.cls-3,.cls-4{fill:none;stroke:#fcfcfc;stroke-linecap:round;}.cls-2{stroke-width:14.06px;}.cls-3{stroke-width:22.5px;}.cls-4{stroke-width:11.25px;}</style></defs><circle class="cls-1" cx="540.52" cy="540.52" r="540"/><path class="cls-2" d="M873.76,546.67c-5.93,117.62-56.5,212.77-106,235" transform="translate(0.52 -3.15)"/><path class="cls-2" d="M915.33,546.67c.77,147.5-73.16,261.7-147.55,291" transform="translate(0.52 -3.15)"/><path class="cls-3" d="M963.49,549.71C973.86,757.32,856,906.37,633.68,935" transform="translate(0.52 -3.15)"/><path class="cls-3" d="M610.77,313.3c0,93.19-70.31,168.73-70.31,168.73s-70.3-75.54-70.3-168.73,70.3-168.73,70.3-168.73S610.77,220.12,610.77,313.3Z" transform="translate(0.52 -3.15)"/><path class="cls-4" d="M767.78,708.44" transform="translate(0.52 -3.15)"/><path class="cls-4" d="M606.91,764.4" transform="translate(0.52 -3.15)"/><path class="cls-3" d="M824.52,548.82s-.45,103.36-53.22,165-137.88,58.12-137.88,58.12.44-103.36,53.21-165" transform="translate(0.52 -3.15)"/><path class="cls-3" d="M794.77,487.26C736.13,559.68,634,574.14,634,574.14s-7.1-102.95,51.55-175.37,166.4-86.2,166.4-86.2S853.41,414.84,794.77,487.26Z" transform="translate(0.52 -3.15)"/><path class="cls-4" d="M483,766.78" transform="translate(0.52 -3.15)"/><path class="cls-3" d="M117.14,549.71C102,745.6,224.11,900.52,448,935.43" transform="translate(0.52 -3.15)"/><path class="cls-3" d="M286.35,485.93c58.64,72.42,160.82,86.89,160.82,86.89s7.09-103-51.55-175.38-166.4-86.19-166.4-86.19S227.7,413.51,286.35,485.93Z" transform="translate(0.52 -3.15)"/><path class="cls-3" d="M256.91,550.09s.44,103.37,53.21,165S448,773.19,448,773.19s-.44-103.36-53.21-165" transform="translate(0.52 -3.15)"/><path class="cls-2" d="M169.94,546.67c-.77,147.5,73.16,261.7,147.55,291" transform="translate(0.52 -3.15)"/><path class="cls-2" d="M209.55,546.67c5.93,117.62,56.5,212.77,106,235" transform="translate(0.52 -3.15)"/></svg>